<?xml version="1.0" encoding="utf-8"?>
<!-- Generator: Adobe Illustrator 21.1.0, SVG Export Plug-In . SVG Version: 6.00 Build 0)  -->
<svg version="1.1" id="Calque_1" xmlns="http://www.w3.org/2000/svg" xmlns:xlink="http://www.w3.org/1999/xlink" x="0px" y="0px"
	 viewBox="0 0 100 125" style="enable-background:new 0 0 100 125;" xml:space="preserve">
<style type="text/css">
	.st0{fill:#FCFCFC;}
</style>
<path class="st0" d="M79.6,14H20.4C11.9,14,5,20.9,5,29.4v59.1c0,8.5,6.9,15.4,15.4,15.4h59.1c8.5,0,15.4-6.9,15.4-15.4V29.4
	C95,20.9,88.1,14,79.6,14z M36,51.2L36,51.2L36,51.2c0.2-0.4,0.4-0.7,0.6-1c0.1-0.2,0.2-0.4,0.4-0.5c0.1-0.2,0.3-0.4,0.4-0.6
	c0.1-0.2,0.2-0.3,0.4-0.5c0.2-0.3,0.5-0.6,0.8-0.9c0.1-0.1,0.3-0.3,0.4-0.4c0.2-0.2,0.4-0.4,0.6-0.5c0.1-0.1,0.3-0.2,0.4-0.4
	c0.3-0.3,0.6-0.5,1-0.7c0.1-0.1,0.2-0.2,0.4-0.2c0.3-0.2,0.5-0.3,0.8-0.5c0.1-0.1,0.3-0.2,0.4-0.2c0.4-0.2,0.8-0.4,1.2-0.6
	c0.1,0,0.2-0.1,0.3-0.1c0.3-0.1,0.7-0.3,1-0.4c0.1,0,0.3-0.1,0.4-0.1c0.4-0.1,0.9-0.3,1.3-0.3c0,0,0.1,0,0.2,0
	c0.4-0.1,0.8-0.1,1.3-0.2c0.1,0,0.3,0,0.4,0c0.5,0,1-0.1,1.5-0.1s1,0,1.5,0.1c0.1,0,0.3,0,0.4,0c0.4,0,0.9,0.1,1.3,0.2
	c0.1,0,0.1,0,0.2,0c0.5,0.1,0.9,0.2,1.3,0.3c0.1,0,0.3,0.1,0.4,0.1c0.4,0.1,0.7,0.2,1.1,0.4c0.1,0,0.2,0.1,0.3,0.1
	c0.4,0.2,0.8,0.4,1.2,0.6c0.1,0.1,0.3,0.1,0.4,0.2c0.3,0.2,0.6,0.3,0.8,0.5c0.1,0.1,0.2,0.2,0.4,0.2c0.3,0.2,0.7,0.5,1,0.7
	c0.1,0.1,0.3,0.2,0.4,0.3c0.2,0.2,0.4,0.4,0.6,0.6c0.1,0.1,0.3,0.3,0.4,0.4c0.3,0.3,0.5,0.6,0.8,0.9c0.1,0.2,0.2,0.3,0.4,0.5
	s0.3,0.4,0.4,0.6c0.1,0.2,0.2,0.3,0.4,0.5c1.7,2.5,2.6,5.5,2.6,8.8c0,8.9-7.2,16.1-16.1,16.1S34.3,67.9,34.3,59
	C33.9,56.2,34.7,53.5,36,51.2z M85.4,83.8c0,6.2-5.1,11.3-11.3,11.3H26c-6.2,0-11.3-5.1-11.3-11.3V51.2h10.9
	c-0.8,2.5-1.2,5.1-1.2,7.8c0,14.2,11.5,25.7,25.7,25.7S75.7,73.2,75.7,59c0-2.7-0.4-5.3-1.2-7.8h10.9V83.8z M85.4,32
	c0,0.7-0.6,1.3-1.3,1.3H77c-0.7,0-1.3-0.6-1.3-1.3v-7.1c0-0.7,0.6-1.3,1.3-1.3h7.1c0.7,0,1.3,0.6,1.3,1.3V32z"/>
</svg>
