<svg xmlns="http://www.w3.org/2000/svg" xmlns:xlink="http://www.w3.org/1999/xlink" version="1.1" x="0px" y="0px" viewBox="0 0 24 30" style="enable-background:new 0 0 24 24;" xml:space="preserve"><g><path d="M6.934,12.202c-0.341,0-0.62,0.271-0.62,0.612v6.012v0.013c0,0.341,0.28,0.616,0.62,0.616h10.127h0.018   c0.34,0,0.611-0.275,0.611-0.616v-6.025c0-0.341-0.271-0.612-0.611-0.612c-0.341,0-0.621,0.271-0.621,0.612v5.409H7.545v-5.409   C7.545,12.473,7.266,12.202,6.934,12.202z"/><path d="M4.181,12.98c0.236,0.236,0.63,0.236,0.865,0l6.951-6.946l6.96,6.946c0.236,0.236,0.629,0.236,0.865,0   c0.24-0.236,0.24-0.629,0-0.865l-7.374-7.383l-0.013-0.009c-0.24-0.236-0.63-0.236-0.87,0l-7.383,7.392   C3.937,12.351,3.937,12.744,4.181,12.98z"/></g><text x="0" y="39" fill="#000000" font-size="5px" font-weight="bold" font-family="'Helvetica Neue', Helvetica, Arial-Unicode, Arial, Sans-serif">Created by AlePio</text><text x="0" y="44" fill="#000000" font-size="5px" font-weight="bold" font-family="'Helvetica Neue', Helvetica, Arial-Unicode, Arial, Sans-serif">from the Noun Project</text></svg>