<svg xmlns="http://www.w3.org/2000/svg" xmlns:xlink="http://www.w3.org/1999/xlink" version="1.1" x="0px" y="0px" viewBox="0 0 100 125" enable-background="new 0 0 100 100" xml:space="preserve"><g><path d="M35.874,45.18c-0.227,0-0.456-0.062-0.661-0.189l-5.729-3.58c-0.582-0.364-0.763-1.129-0.403-1.714l12.551-20.464   c0.455-0.742,1.676-0.742,2.131,0l9.642,15.721c0.273,0.444,0.241,1.011-0.08,1.422l-5.042,6.464   c-0.402,0.516-1.134,0.633-1.679,0.271l-5.888-3.925l-3.815,5.46C36.657,44.992,36.269,45.18,35.874,45.18z M31.859,39.946   l3.671,2.294l3.836-5.489c0.389-0.558,1.152-0.7,1.718-0.324l5.939,3.96l3.796-4.865l-8.123-13.245L31.859,39.946z"/></g><g><path d="M57.414,45.135c-0.421,0-0.832-0.213-1.067-0.598l-0.303-0.495c-0.287-0.469-0.228-1.052,0.105-1.452l0,0l0.001-0.001   v-0.001c0.001,0,0.001-0.001,0.001-0.001l0,0c0.002-0.002,0.002-0.003,0.002-0.003s0,0,0.001,0l0,0l0.001-0.001   c0-0.001,0-0.001,0-0.001c0.001,0,0.001-0.001,0.001-0.001s-0.001-0.002,0.002-0.001v-0.001l0.001-0.001l0,0l0.001-0.001   c0,0,0-0.001,0.001-0.001v-0.001c0.001,0,0.001,0,0.001,0s0.002-0.003,0.001-0.002l0.001-0.001l0,0   c0.001-0.001,0.001-0.001,0.001-0.001l0.001-0.001c0,0,0-0.001,0.001-0.001l0,0l0.001-0.001v-0.001c0.001,0,0.001,0,0.001,0   l0.001-0.001v-0.001c0.001,0,0.001-0.001,0.001-0.001s0,0,0.001-0.001l0,0c0.001-0.001,0.001-0.001,0.001-0.001   s0-0.001,0.001-0.001c0,0,0.002,0,0.001-0.001c0,0,0-0.001,0.001-0.001v-0.001c0.001,0,0.001,0,0.001,0s0-0.003,0.001-0.002   l0.001-0.001l0,0c0.001-0.001,0.001-0.001,0.001-0.001c0.001-0.001,0.001-0.001,0.001-0.001s0-0.001,0.001-0.001l0,0l0.001-0.001   v-0.001c0.001,0,0.001-0.001,0.001-0.001h0.001l0.001-0.001v-0.001l0.001-0.001l0,0c0.001-0.001,0.001-0.001,0.001-0.001   l0.001-0.001c0,0,0,0,0.001-0.001l0,0l0.001-0.001c0,0-0.002,0.001,0.002-0.002l0,0l0.001-0.001l0,0   c0.001-0.001,0.002-0.002,0.003-0.003l0,0c0.001-0.001,0.002-0.002,0.002-0.002v-0.001c0.001-0.001,0.002-0.002,0.003-0.003l0,0   c0.074-0.079,0.16-0.148,0.257-0.208c0.02-0.013,0.042-0.024,0.062-0.036l0,0l0.002-0.001c0,0,0,0,0.001,0   c0,0,0.001-0.001,0.002-0.001l0,0c0.001-0.001,0.001-0.001,0.002-0.001c0,0,0-0.001,0.001-0.001h0.001   c0.001-0.001,0.001-0.001,0.001-0.001c0.001,0,0.001,0,0.002-0.001l0.002-0.001c0,0,0.001-0.001,0.002-0.001   c0.001,0,0.001-0.001,0.002-0.001l0.002-0.001c0.001,0,0,0.002,0.003-0.002l0,0c0.001,0,0.002,0,0.002,0l0.001-0.001   c0,0,0.001-0.001,0.002-0.001l0,0c0.146-0.073,0.3-0.116,0.454-0.129l0,0c0.001-0.001,0.002-0.001,0.003-0.001c0,0,0,0,0.001,0   c0,0,0.001,0,0.002,0h0.001c0.001,0,0.001,0,0.001,0c0.392-0.035,0.788,0.124,1.052,0.435l0,0c0.001,0,0.001,0.001,0.001,0.001   l0.001,0.001c0.001,0,0.002,0.002,0.002,0.002l0.001,0.001c0,0,0,0.001,0.001,0.001c0,0,0.002,0.003,0.001,0.002   c0.001,0,0.001,0.001,0.001,0.001c0.001,0,0.001,0.001,0.001,0.001l0.001,0.001l0.001,0.001c0,0,0,0.001,0.001,0.001v0.001   c0.001,0,0.001,0.001,0.001,0.001c0.001,0,0.001,0.001,0.001,0.001l0.001,0.001l0.001,0.001c0,0,0,0.001,0.001,0.001l0.001,0.002   c0.001,0,0.001,0.001,0.001,0.001l0.001,0.001l0.001,0.001c0,0.001,0,0.001,0,0.001c0.001,0.001,0.001,0.001,0.002,0.002l0,0   l0.001,0.002c0,0,0.003-0.001,0.002,0.002l0,0c0.001,0.001,0.001,0.001,0.002,0.002l0,0c0.031,0.039,0.061,0.081,0.087,0.125   l0.304,0.496c0.36,0.589,0.175,1.358-0.414,1.719C57.861,45.075,57.637,45.135,57.414,45.135z"/></g><g><path d="M61.933,47.719c-0.213,0-0.427-0.054-0.62-0.165l-4.519-2.584c-0.183-0.104-0.337-0.253-0.446-0.433l-0.303-0.495   c-0.245-0.401-0.245-0.905,0.001-1.306l8.552-13.943c0.455-0.742,1.676-0.742,2.131,0l8.409,13.711   c0.309,0.503,0.224,1.154-0.205,1.561l-2.946,2.793c-0.388,0.368-0.965,0.449-1.438,0.201l-4.908-2.553l-2.819,2.843   C62.579,47.592,62.258,47.719,61.933,47.719z M58.704,43.182l3.017,1.725l2.792-2.815c0.386-0.39,0.981-0.482,1.465-0.229   l4.934,2.566l1.564-1.482l-6.813-11.11L58.704,43.182z"/></g><g><g><path d="M66.627,70.379c-0.421,0-0.832-0.212-1.067-0.598L47.786,40.727c-0.36-0.589-0.175-1.358,0.414-1.719    c0.588-0.359,1.359-0.176,1.719,0.414l17.774,29.055c0.36,0.589,0.175,1.358-0.414,1.719    C67.075,70.319,66.85,70.379,66.627,70.379z"/></g><g><path d="M60.669,70.379c-0.421,0-0.832-0.212-1.067-0.598L40.857,39.141c-0.36-0.589-0.175-1.358,0.414-1.719    c0.587-0.358,1.359-0.176,1.719,0.414l18.744,30.641c0.36,0.589,0.175,1.358-0.414,1.719    C61.117,70.319,60.892,70.379,60.669,70.379z"/></g><g><path d="M54.71,70.379c-0.421,0-0.832-0.212-1.067-0.598L36.631,41.974c-0.36-0.589-0.175-1.358,0.414-1.719    c0.587-0.358,1.359-0.176,1.719,0.414l17.012,27.808c0.36,0.589,0.175,1.358-0.414,1.719    C55.158,70.319,54.933,70.379,54.71,70.379z"/></g><g><path d="M48.751,70.379c-0.421,0-0.832-0.212-1.067-0.598l-16.987-27.77c-0.36-0.589-0.175-1.358,0.414-1.719    c0.587-0.358,1.358-0.176,1.719,0.414l16.987,27.77c0.36,0.589,0.175,1.358-0.414,1.719    C49.199,70.319,48.974,70.379,48.751,70.379z"/></g><g><path d="M42.792,70.379c-0.421,0-0.831-0.212-1.067-0.598l-15.129-24.73c-0.36-0.589-0.175-1.358,0.414-1.719    c0.587-0.359,1.357-0.176,1.719,0.414l15.129,24.731c0.36,0.589,0.175,1.358-0.414,1.719    C43.24,70.319,43.015,70.379,42.792,70.379z"/></g><g><path d="M36.834,70.379c-0.421,0-0.832-0.212-1.067-0.598L23.613,49.914c-0.36-0.589-0.175-1.358,0.414-1.719    c0.588-0.359,1.359-0.176,1.719,0.414l12.153,19.867c0.36,0.589,0.175,1.358-0.414,1.719    C37.282,70.319,37.057,70.379,36.834,70.379z"/></g><g><path d="M30.875,70.379c-0.421,0-0.832-0.212-1.067-0.598L20.63,54.778c-0.36-0.589-0.175-1.358,0.414-1.719    c0.588-0.358,1.359-0.176,1.719,0.414l9.178,15.003c0.36,0.589,0.175,1.358-0.414,1.719    C31.323,70.319,31.098,70.379,30.875,70.379z"/></g><g><path d="M24.916,70.379c-0.421,0-0.832-0.212-1.067-0.598l-6.202-10.14c-0.36-0.589-0.175-1.358,0.414-1.719    c0.59-0.358,1.359-0.176,1.719,0.414l6.202,10.14c0.36,0.589,0.175,1.358-0.414,1.719C25.363,70.319,25.139,70.379,24.916,70.379z    "/></g><g><path d="M18.957,70.379c-0.421,0-0.832-0.213-1.067-0.598l-3.227-5.275c-0.36-0.589-0.175-1.358,0.414-1.719    c0.59-0.358,1.359-0.174,1.719,0.414l3.227,5.275c0.36,0.589,0.175,1.358-0.414,1.719C19.404,70.319,19.18,70.379,18.957,70.379z"/></g><g><path d="M12.998,70.379c-0.422,0-0.833-0.213-1.068-0.6l-0.251-0.412c-0.359-0.59-0.173-1.359,0.417-1.718    c0.591-0.359,1.359-0.172,1.718,0.417l0.251,0.412c0.359,0.59,0.173,1.359-0.417,1.718C13.444,70.32,13.22,70.379,12.998,70.379z"/></g><g><path d="M78.477,70.269c-0.421,0-0.832-0.212-1.067-0.598L62.566,45.407c-0.36-0.589-0.175-1.358,0.414-1.719    c0.587-0.358,1.358-0.176,1.719,0.414l14.844,24.264c0.36,0.589,0.175,1.358-0.414,1.719C78.926,70.209,78.7,70.269,78.477,70.269    z"/></g><g><path d="M84.435,70.269c-0.421,0-0.832-0.212-1.067-0.598L68.882,45.99c-0.36-0.589-0.175-1.358,0.414-1.719    c0.587-0.358,1.359-0.176,1.719,0.414l14.486,23.681c0.36,0.589,0.175,1.358-0.414,1.719    C84.884,70.209,84.658,70.269,84.435,70.269z"/></g><g><path d="M72.898,70.379H12.494c-0.452,0-0.87-0.244-1.091-0.64c-0.221-0.394-0.211-0.878,0.025-1.264L29.08,39.696    c0.174-0.284,0.455-0.487,0.779-0.563c0.325-0.076,0.665-0.021,0.948,0.156l4.723,2.951l3.836-5.489    c0.389-0.558,1.152-0.7,1.718-0.324l5.939,3.96l4.329-5.549c0.252-0.323,0.646-0.497,1.056-0.479    c0.409,0.024,0.781,0.245,0.995,0.595l20.561,33.522c0.236,0.386,0.246,0.869,0.025,1.264    C73.769,70.135,73.351,70.379,72.898,70.379z M14.727,67.879h55.938l-18.45-30.082l-3.933,5.042    c-0.402,0.516-1.134,0.633-1.679,0.271l-5.888-3.925l-3.815,5.46c-0.381,0.545-1.123,0.695-1.687,0.345l-4.661-2.913    L14.727,67.879z"/></g><g><path d="M89.934,70.269H72.829c-0.435,0-0.838-0.226-1.065-0.597L56.348,44.538c-0.299-0.486-0.229-1.113,0.168-1.523    c0.399-0.409,1.026-0.497,1.518-0.215l3.688,2.107l2.792-2.815c0.386-0.39,0.981-0.482,1.465-0.229l4.934,2.566l2.3-2.18    c0.275-0.26,0.65-0.379,1.024-0.332c0.374,0.049,0.705,0.265,0.902,0.586l15.862,25.861c0.236,0.386,0.246,0.869,0.025,1.264    C90.804,70.024,90.386,70.269,89.934,70.269z M73.529,67.769H87.7L73.812,45.125l-1.827,1.732    c-0.388,0.368-0.965,0.449-1.438,0.201l-4.908-2.553l-2.819,2.843c-0.398,0.402-1.018,0.486-1.508,0.205l-0.28-0.159    L73.529,67.769z"/></g></g><text x="0" y="115" fill="#000000" font-size="5px" font-weight="bold" font-family="'Helvetica Neue', Helvetica, Arial-Unicode, Arial, Sans-serif">Created by MONTANA RUCOBO</text><text x="0" y="120" fill="#000000" font-size="5px" font-weight="bold" font-family="'Helvetica Neue', Helvetica, Arial-Unicode, Arial, Sans-serif">from the Noun Project</text></svg>