<svg xmlns:dc="http://purl.org/dc/elements/1.1/" xmlns:cc="http://creativecommons.org/ns#" xmlns:rdf="http://www.w3.org/1999/02/22-rdf-syntax-ns#" xmlns:svg="http://www.w3.org/2000/svg" xmlns="http://www.w3.org/2000/svg" xmlns:sodipodi="http://sodipodi.sourceforge.net/DTD/sodipodi-0.dtd" xmlns:inkscape="http://www.inkscape.org/namespaces/inkscape" version="1.1" x="0px" y="0px" viewBox="0 0 718.98889 917.7030125" enable-background="new 0 0 2000 2000" xml:space="preserve"><path style="" d="m 359.53876,0 c -17.285,0 -31.256,13.9717 -31.256,31.2569 l 0,58.3556 -54.667,-59.668 c -11.659,-12.7218 -31.445,-13.5955 -44.199,-1.937 -12.721,11.6585 -13.565,31.4436 -1.906,44.1654 l 100.772,109.9892 0,130.78754 -113.241,-65.36454 -44.88699,-142.3428 c -5.188,-16.4416 -22.85,-25.5672 -39.258,-20.4099 -16.41,5.2198 -25.567,22.7838 -20.378,39.2254 l 24.359,77.2575 -50.615997,-29.2159 c -14.943,-8.6575 -34.073,-3.4992 -42.668,11.4411 -8.69,14.9417 -3.562,34.0705 11.412,42.6981 l 50.627997,29.2235 -79.072997,17.5057 c -16.9089999,3.71984 -27.5379999,20.41094 -23.81899986,37.25804 3.25099996,14.5971 16.19099986,24.5069 30.53899986,24.5069 2.187,0 4.5,-0.2518 6.749,-0.721 l 145.779997,-32.2722 113.20399,65.3416 -113.26199,65.3773 -145.721997,-32.3053 c -17.096,-3.6887 -33.5679999,6.9372 -37.28799986,23.753 -3.71900004,16.847 6.90899996,33.5413 23.75599986,37.291 l 79.087997,17.5336 -50.579997,29.1956 c -14.942,8.6262 -20.07,27.7239 -11.412,42.6955 5.783,10.0026 16.287,15.6297 27.102,15.6297 5.314,0 10.688,-1.3435 15.566,-4.1886 l 50.630997,-29.2235 -24.374,77.2956 c -5.189,16.4415 3.968,34.0082 20.378,39.2279 3.126,0.9683 6.283,1.4393 9.409,1.4393 13.315,0 25.629,-8.5022 29.849,-21.8491 l 44.89599,-142.3809 113.232,-65.3569 0,130.6909 -100.833,110.0858 c -11.661,12.7217 -10.784,32.5055 1.907,44.1653 6.062,5.5005 13.626,8.2198 21.127,8.2198 8.502,0 16.91,-3.4059 23.068,-10.1567 l 54.731,-59.7518 0,58.4369 c 0,17.2863 13.971,31.2569 31.256,31.2569 17.255,0 31.258,-13.9706 31.258,-31.2569 l 0,-58.442 54.764,59.7874 c 6.156,6.7196 14.564,10.1262 23.003,10.1262 7.565,0 15.129,-2.7175 21.131,-8.1868 12.784,-11.6598 13.629,-31.4474 1.971,-44.1678 l -100.869,-110.1213 0,-130.6657 113.216,65.362 44.82,142.3556 c 4.22,13.3469 16.537,21.8491 29.789,21.8491 3.126,0 6.314,-0.4399 9.408,-1.4393 16.472,-5.1886 25.632,-22.7552 20.444,-39.2279 l -24.333,-77.2779 50.588,29.2058 c 4.875,2.8451 10.249,4.1886 15.563,4.1886 10.815,0 21.317,-5.5959 27.099,-15.6297 8.69,-14.9404 3.567,-34.0693 -11.405,-42.6955 l -50.585,-29.2032 79.09,-17.526 c 16.848,-3.7497 27.476,-20.4128 23.756,-37.291 -3.718,-16.8158 -20.256,-27.4728 -37.292,-23.753 l -145.721,32.2876 -113.194,-65.3494 113.199,-65.3518 145.716,32.2722 c 2.252,0.4069 4.535,0.721 6.787,0.721 14.345,0 27.222,-9.9409 30.442,-24.5069 3.719,-16.8471 -6.91,-33.507 -23.757,-37.25804 l -79.031,-17.5057 50.62,-29.2235 c 14.94,-8.6276 20.065,-27.7252 11.408,-42.6981 -8.658,-14.9715 -27.756,-20.0674 -42.665,-11.4411 l -50.583,29.2032 24.328,-77.2448 c 5.187,-16.4727 -3.971,-34.0368 -20.442,-39.2254 -16.411,-5.1573 -34.01,3.9683 -39.2,20.4099 l -44.819,142.3225 -113.246,65.37974 0,-130.74694 100.835,-110.0552 c 11.658,-12.7218 10.785,-32.5094 -1.967,-44.1679 -12.754,-11.6585 -32.477,-10.751 -44.135,1.9395 l -54.733,59.7391 0,-58.3962 C 390.79676,13.9717 376.82376,0 359.53876,0 Z" fill="#000000"/><text x="0" y="749.16241" fill="#000000" font-size="5px" font-weight="bold" font-family="'Helvetica Neue', Helvetica, Arial-Unicode, Arial, Sans-serif">Created by logan</text><text x="0" y="754.16241" fill="#000000" font-size="5px" font-weight="bold" font-family="'Helvetica Neue', Helvetica, Arial-Unicode, Arial, Sans-serif">from the Noun Project</text></svg>